<svg width="18" height="18" viewBox="0 0 18 18" fill="none" xmlns="http://www.w3.org/2000/svg">
<g clip-path="url(#clip0_286_15075)">
<mask id="mask0_286_15075" style="mask-type:luminance" maskUnits="userSpaceOnUse" x="0" y="0" width="18" height="18">
<path d="M18 0H0V18H18V0Z" fill="white"/>
</mask>
<g mask="url(#mask0_286_15075)">
<path d="M9.53637 6.87292L11.0594 14.861L8.97649 16.5079L6.89355 14.861L8.41646 6.8737L8.98 7.44573L9.53637 6.87292Z" fill="url(#paint0_linear_286_15075)"/>
<path d="M6.89352 1.48499H11.0594L11.7537 2.55792L8.98358 5.77674L6.19922 2.55792L6.89352 1.48499Z" fill="url(#paint1_linear_286_15075)"/>
<path d="M0 4.34619H5.58838L7.1514 5.91984L6.10993 9.85394L3.48178 8.63794L4.82577 6.5636C3.76328 6.5636 3.10274 6.53976 2.84415 6.49207C2.45625 6.42055 1.97679 6.18991 1.22329 5.59013C0.720962 5.19028 0.313198 4.77564 0 4.34619Z" fill="url(#paint2_linear_286_15075)"/>
<path d="M18 4.37793C17.6868 4.80738 17.279 5.22202 16.7767 5.62186C16.0232 6.22165 15.5438 6.45228 15.1559 6.52381C14.8973 6.57149 14.2368 6.59534 13.1742 6.59534L14.5183 8.66968L11.8901 9.88568L10.8486 5.95157L12.4116 4.37793H18Z" fill="url(#paint3_linear_286_15075)"/>
</g>
</g>
<defs>
<linearGradient id="paint0_linear_286_15075" x1="6.89355" y1="11.6262" x2="11.0594" y2="11.6262" gradientUnits="userSpaceOnUse">
<stop stop-color="#CDFAFA"/>
<stop offset="0.0001" stop-color="#785A28"/>
<stop offset="1" stop-color="#C89B3C"/>
</linearGradient>
<linearGradient id="paint1_linear_286_15075" x1="6.19922" y1="3.60225" x2="11.7537" y2="3.60225" gradientUnits="userSpaceOnUse">
<stop stop-color="#CDFAFA"/>
<stop offset="0.0001" stop-color="#785A28"/>
<stop offset="1" stop-color="#C89B3C"/>
</linearGradient>
<linearGradient id="paint2_linear_286_15075" x1="3.02642e-09" y1="7.06335" x2="7.1514" y2="7.06335" gradientUnits="userSpaceOnUse">
<stop stop-color="#CDFAFA"/>
<stop offset="0.0001" stop-color="#785A28"/>
<stop offset="1" stop-color="#C89B3C"/>
</linearGradient>
<linearGradient id="paint3_linear_286_15075" x1="10.8486" y1="7.09508" x2="18" y2="7.09508" gradientUnits="userSpaceOnUse">
<stop stop-color="#CDFAFA"/>
<stop offset="0.0001" stop-color="#785A28"/>
<stop offset="1" stop-color="#C89B3C"/>
</linearGradient>
<clipPath id="clip0_286_15075">
<rect width="18" height="18" fill="white"/>
</clipPath>
</defs>
</svg>
