<svg width="24" height="24" viewBox="0 0 24 24" fill="none" xmlns="http://www.w3.org/2000/svg">
<path d="M6.77445 19L2.43445 8.12C1.57445 5.98 0.694454 5.72 0.534454 5.68H5.91445C5.77445 5.7 5.09445 5.82 5.09445 6.58C5.09445 6.86 5.23445 7.2 5.43445 7.68L8.23445 14.74L10.9345 7.6C11.0745 7.18 11.1745 6.88 11.1745 6.64C11.1745 5.84 10.4945 5.7 10.3345 5.68H14.9545C14.8345 5.7 13.9545 5.9 13.0545 8.2L8.81445 19H6.77445ZM13.7048 18.3V14.52C14.6848 16.64 16.1448 17.32 17.7248 17.32C18.9448 17.32 19.9648 16.76 19.9648 15.8C19.9648 14.38 18.1448 13.8 16.4648 12.92C15.0848 12.2 13.7648 11.24 13.7648 9.38C13.7648 6.76 15.9048 5.4 18.5448 5.4C19.8248 5.4 21.1048 5.8 21.8248 6.3V9.48C21.3048 8.5 19.9448 7.34 18.3648 7.34C17.0248 7.34 16.3848 7.98 16.3848 8.8C16.3848 9.88 17.5848 10.42 18.9648 11.06C20.7448 11.86 22.7048 12.86 22.7048 15.3C22.7048 17.9 20.5248 19.3 17.6448 19.3C16.1648 19.3 14.6648 18.9 13.7048 18.3Z" fill="#EAD8B3"/>
</svg>
