<svg width="41" height="40" viewBox="0 0 41 40" fill="none" xmlns="http://www.w3.org/2000/svg">
<path d="M20.0167 29.9834C14.7167 29.7334 10.5 25.3667 10.5 20C10.5 14.4834 14.9833 10 20.5 10C25.8667 10 30.2333 14.2167 30.4833 19.5167L26.9833 18.4667C26.3 15.5167 23.65 13.3334 20.5 13.3334C16.8167 13.3334 13.8333 16.3167 13.8333 20C13.8333 23.15 16.0167 25.8 18.9667 26.4834L20.0167 29.9834ZM37.1667 20C37.1667 20.5 37.15 21 37.1 21.5L33.8167 20.5167C33.8333 20.35 33.8333 20.1667 33.8333 20C33.8333 12.6334 27.8667 6.66671 20.5 6.66671C13.1333 6.66671 7.16668 12.6334 7.16668 20C7.16668 27.3667 13.1333 33.3334 20.5 33.3334C20.6667 33.3334 20.85 33.3334 21.0167 33.3167L22 36.6C21.5 36.65 21 36.6667 20.5 36.6667C11.3 36.6667 3.83334 29.2 3.83334 20C3.83334 10.8 11.3 3.33337 20.5 3.33337C29.7 3.33337 37.1667 10.8 37.1667 20ZM30.8833 27.1L37.1667 25L20.5 20L25.5 36.6667L27.6 30.3834L34.7167 37.5L38.0167 34.2L30.8833 27.1Z" fill="#010A13"/>
</svg>
