<svg width="31" height="31" viewBox="0 0 31 31" fill="none" xmlns="http://www.w3.org/2000/svg">
<path d="M10.5504 5.85051L14.3452 5.85051L14.3287 10.6023L16.6716 10.6023L16.6551 5.8505L20.4499 5.85051L15.5001 0.900758L10.5504 5.85051ZM5.60063 20.6997L5.60063 16.9049L10.3524 16.9214V14.5786L5.60063 14.5951L5.60063 10.8003L0.650879 15.75L5.60063 20.6997ZM20.4499 25.6495L16.6551 25.6495L16.6716 20.8977L14.3287 20.8977L14.3452 25.6495L10.5504 25.6495L15.5001 30.5992L20.4499 25.6495ZM25.3996 10.8003V14.5951L20.6479 14.5786V16.9214L25.3996 16.9049V20.6997L30.3494 15.75L25.3996 10.8003Z" fill="#010A13"/>
</svg>
