<svg width="18" height="18" viewBox="0 0 18 18" fill="none" xmlns="http://www.w3.org/2000/svg">
<g clip-path="url(#clip0_286_14742)">
<path d="M14.7277 0C12.7045 1.86262 11.0407 4.08103 9.81909 6.5448C10.1897 7.88713 10.4628 9.25449 10.6363 10.6362C10.6363 10.6362 11.4481 9 11.4553 9C11.4553 6.615 14.7277 0 14.7277 0ZM5.72769 10.6362C4.73049 7.947 3.48669 7.0362 0.819092 5.7276C3.25269 7.74 4.09149 13.0914 4.09149 13.0914C4.09149 13.0914 7.04889 14.3424 9.00009 18C11.8801 11.34 6.87609 4.2246 3.27249 0C4.95369 4.2246 5.72769 6.12 5.72769 10.6362ZM11.4553 13.0914V15.5448L14.7277 12.2724C14.7277 9.5544 14.7475 6.9246 17.1811 4.9086C13.8601 6.5394 11.4553 11.1762 11.4553 13.0914Z" fill="url(#paint0_linear_286_14742)"/>
</g>
<defs>
<linearGradient id="paint0_linear_286_14742" x1="0.819092" y1="8.87999" x2="17.1811" y2="8.87999" gradientUnits="userSpaceOnUse">
<stop stop-color="#CDFAFA"/>
<stop offset="0.0001" stop-color="#785A28"/>
<stop offset="1" stop-color="#C89B3C"/>
</linearGradient>
<clipPath id="clip0_286_14742">
<rect width="18" height="18" fill="white"/>
</clipPath>
</defs>
</svg>
